<?xml version="1.0" encoding="utf-8"?>
<!-- Generator: Adobe Illustrator 24.3.0, SVG Export Plug-In . SVG Version: 6.00 Build 0)  -->
<svg version="1.1" id="Layer_1" xmlns="http://www.w3.org/2000/svg" xmlns:xlink="http://www.w3.org/1999/xlink" x="0px" y="0px"
	 viewBox="0 0 300 300" enable-background="new 0 0 300 300" xml:space="preserve">
<g>
	<g>
		<g>
			<path fill="#E5E5E4" d="M259.63,74.107H39.955c-10.335,0-19.077,8.596-19.077,18.925V213.99h258.245V93.032
				C279.123,82.703,269.965,74.107,259.63,74.107z"/>
		</g>
		<g>
			<rect x="139.24" y="240.89" fill="#E5E5E4" width="26.9" height="21.521"/>
		</g>
		<g>
			<rect x="106.959" y="262.411" fill="#9AD7D2" width="91.462" height="16.14"/>
		</g>
		<g>
			<path fill="#9AD7D2" d="M20.877,213.99v8.385c0,10.329,8.743,18.515,19.077,18.515H259.63c10.335,0,19.492-8.186,19.492-18.515
				v-8.385H20.877z"/>
		</g>
		<g>
			<path fill="#E5E5E4" d="M155.38,227.44c0,1.487-1.203,2.69-2.69,2.69c-1.487,0-2.69-1.203-2.69-2.69
				c0-1.487,1.203-2.69,2.69-2.69C154.177,224.75,155.38,225.953,155.38,227.44z"/>
		</g>
		<g>
			
				<ellipse transform="matrix(0.1602 -0.9871 0.9871 0.1602 -70.8314 210.2243)" fill="#FFDA88" cx="88.129" cy="146.738" rx="40.351" ry="40.351"/>
		</g>
		<g>
			<path fill="#FFE2A9" d="M58.538,146.738c0-20.459,15.234-37.314,34.971-39.952c-1.765-0.236-3.552-0.399-5.38-0.399
				c-22.288,0-40.351,18.063-40.351,40.351c0,22.288,18.063,40.351,40.351,40.351c1.828,0,3.615-0.163,5.38-0.399
				C73.772,184.052,58.538,167.197,58.538,146.738z"/>
		</g>
		<g>
			<path fill="#FE6F80" d="M100.492,150.285c-0.978-1.716-2.18-3.055-3.62-4.038c-1.44-0.969-3.567-2.059-6.381-3.25
				c-3.846-1.545-5.758-3.383-5.758-5.498c0-1.072,0.37-1.994,1.108-2.777c0.743-0.756,1.629-1.156,2.651-1.156
				c1.334,0,3.523,0.901,6.549,2.69l4.35-6.833c-1.855-2.69-5.653-4.04-8.572-4.135v-3.071c0-1.595-1.881-2.887-5.38-2.887
				s-5.38,1.292-5.38,2.887v3.538c0,0-1.245,0.593-3.425,2.861c-2.391,2.475-2.606,6.649-2.606,9.512
				c0,5.74,4.902,8.215,6.037,9.076c1.132,0.862,3.045,1.868,5.296,2.842c4.629,1.981,6.798,3.547,6.798,5.79
				c0,1.08-0.483,2.122-1.505,3.11c-1.027,0.993-2.08,1.411-3.191,1.492c-3.134,0.218-5.714-1.984-9.318-4.639L72.8,162.59
				c3.302,3.906,7.258,5.674,7.258,5.756v2.884c0,1.6,2.327,2.887,5.38,2.887c2.869,0,5.38-1.287,5.38-2.887v-2.884
				c0-0.037,3.846-0.536,6.562-2.879c2.677-2.312,4.6-5.893,4.6-9.573C101.981,153.878,101.461,152.018,100.492,150.285z"/>
		</g>
		<g>
			<rect x="150" y="106.388" fill="#C1C1C1" width="96.842" height="10.76"/>
		</g>
		<g>
			<rect x="150" y="127.908" fill="#C1C1C1" width="43.041" height="10.76"/>
		</g>
		<g>
			<rect x="209.181" y="127.908" fill="#C1C1C1" width="37.661" height="10.76"/>
		</g>
		<g>
			<path fill="#FE6F80" d="M216.329,151.467l-22.826,22.824l-7.61-7.608c-2.099-2.102-5.507-2.102-7.608,0
				c-2.101,2.102-2.101,5.509,0,7.608l11.414,11.414c2.099,2.101,5.506,2.101,7.608,0l26.63-26.63c2.102-2.102,2.102-5.509,0-7.608
				C221.836,149.365,218.428,149.365,216.329,151.467z"/>
		</g>
		<g>
			<rect x="139.24" y="240.89" fill="#EFEFEF" width="10.76" height="21.521"/>
		</g>
		<g>
			<rect x="106.959" y="262.411" fill="#ABEDE6" width="16.14" height="16.14"/>
		</g>
		<g>
			<path fill="#EFEFEF" d="M37.018,74.409c-8.992,1.447-16.14,9.294-16.14,18.623V213.99h16.14V74.409z"/>
		</g>
		<g>
			<path fill="#ABEDE6" d="M37.018,213.99h-16.14v8.385c0,9.329,7.148,16.845,16.14,18.226V213.99z"/>
		</g>
		<g>
			<rect x="150" y="106.388" fill="#D6D6D6" width="5.38" height="10.76"/>
		</g>
		<g>
			<rect x="150" y="127.908" fill="#D6D6D6" width="5.38" height="10.76"/>
		</g>
		<g>
			<rect x="209.181" y="127.908" fill="#D6D6D6" width="5.38" height="10.76"/>
		</g>
		<g>
			<path fill="#9AD7D2" d="M166.135,63.347c-1.129,0-2.267-0.355-3.239-1.087c-10.329-7.805-19.227-0.97-20.204-0.166
				c-2.285,1.875-5.669,1.579-7.563-0.694c-1.894-2.264-1.623-5.622,0.628-7.534c5.512-4.689,19.637-10.766,33.628-0.192
				c2.37,1.792,2.84,5.168,1.049,7.537C169.374,62.611,167.764,63.347,166.135,63.347z"/>
		</g>
		<g>
			<path fill="#9AD7D2" d="M182.275,52.586c-1.024,0-2.062-0.292-2.979-0.904c-28.681-19.117-52.6-0.465-52.837-0.275
				c-2.314,1.857-5.706,1.482-7.561-0.841c-1.857-2.319-1.482-5.706,0.841-7.561c0.3-0.242,30.381-23.703,65.525-0.275
				c2.472,1.647,3.139,4.988,1.492,7.461C185.72,51.746,184.015,52.586,182.275,52.586z"/>
		</g>
		<g>
			<path fill="#9AD7D2" d="M193.038,36.449c-0.73,0-1.471-0.15-2.183-0.467c-44.904-19.95-74.321-1.237-75.55-0.426
				c-2.478,1.621-5.816,0.943-7.445-1.529c-1.634-2.472-0.972-5.793,1.495-7.437c1.424-0.946,35.331-22.905,85.872-0.439
				c2.713,1.206,3.938,4.385,2.729,7.101C197.065,35.256,195.098,36.446,193.038,36.449z"/>
		</g>
	</g>
	<g>
		<g>
			<path fill="#161616" d="M166.14,267.791h-26.9c-2.971,0-5.38-2.409-5.38-5.38v-21.52c0-2.971,2.409-5.38,5.38-5.38h26.9
				c2.971,0,5.38,2.409,5.38,5.38v21.52C171.52,265.382,169.111,267.791,166.14,267.791z M144.62,257.031h16.14v-10.76h-16.14
				V257.031z"/>
		</g>
		<g>
			<path fill="#161616" d="M198.421,283.931h-91.462c-2.971,0-5.38-2.409-5.38-5.38v-16.14c0-2.971,2.409-5.38,5.38-5.38h91.462
				c2.971,0,5.38,2.409,5.38,5.38v16.14C203.801,281.522,201.392,283.931,198.421,283.931z M112.339,273.171h80.702v-5.38h-80.702
				V273.171z"/>
		</g>
		<g>
			<path fill="#161616" d="M155.38,227.44c0,1.487-1.203,2.69-2.69,2.69c-1.487,0-2.69-1.203-2.69-2.69
				c0-1.487,1.203-2.69,2.69-2.69C154.177,224.75,155.38,225.953,155.38,227.44z"/>
		</g>
		<g>
			<path fill="#161616" d="M100.492,150.285c-0.978-1.716-2.18-3.055-3.62-4.038c-1.44-0.969-3.567-2.059-6.381-3.25
				c-3.846-1.545-5.758-3.383-5.758-5.498c0-1.072,0.37-1.994,1.108-2.777c0.743-0.756,1.629-1.156,2.651-1.156
				c1.334,0,3.523,0.901,6.549,2.69l4.35-6.833c-1.855-2.69-5.653-4.04-8.572-4.135v-3.071c0-1.595-1.881-2.887-5.38-2.887
				s-5.38,1.292-5.38,2.887v3.538c0,0-1.245,0.593-3.425,2.861c-2.391,2.475-2.606,6.649-2.606,9.512
				c0,5.74,4.902,8.215,6.037,9.076c1.132,0.862,3.045,1.868,5.296,2.842c4.629,1.981,6.798,3.547,6.798,5.79
				c0,1.08-0.483,2.122-1.505,3.11c-1.027,0.993-2.08,1.411-3.191,1.492c-3.134,0.218-5.714-1.984-9.318-4.639L72.8,162.59
				c3.302,3.906,7.258,5.674,7.258,5.756v2.884c0,1.6,2.327,2.887,5.38,2.887c2.869,0,5.38-1.287,5.38-2.887v-2.884
				c0-0.037,3.846-0.536,6.562-2.879c2.677-2.312,4.6-5.893,4.6-9.573C101.981,153.878,101.461,152.018,100.492,150.285z"/>
		</g>
		<g>
			<path fill="#161616" d="M88.129,192.469c-25.217,0-45.731-20.514-45.731-45.731c0-25.217,20.514-45.731,45.731-45.731
				c25.217,0,45.731,20.514,45.731,45.731C133.86,171.955,113.345,192.469,88.129,192.469z M88.129,111.768
				c-19.282,0-34.971,15.688-34.971,34.971c0,19.282,15.688,34.971,34.971,34.971c19.282,0,34.971-15.688,34.971-34.971
				C123.1,127.456,107.411,111.768,88.129,111.768z"/>
		</g>
		<g>
			<rect x="150" y="106.388" fill="#161616" width="96.842" height="10.76"/>
		</g>
		<g>
			<rect x="150" y="127.908" fill="#161616" width="43.041" height="10.76"/>
		</g>
		<g>
			<rect x="209.181" y="127.908" fill="#161616" width="37.661" height="10.76"/>
		</g>
		<g>
			<path fill="#161616" d="M216.329,151.467l-22.826,22.824l-7.61-7.608c-2.099-2.102-5.507-2.102-7.608,0
				c-2.101,2.102-2.101,5.509,0,7.608l11.414,11.414c2.099,2.101,5.506,2.101,7.608,0l26.63-26.63c2.102-2.102,2.102-5.509,0-7.608
				C221.836,149.365,218.428,149.365,216.329,151.467z"/>
		</g>
		<g>
			<path fill="#161616" d="M259.63,246.27H80.059c-2.971,0-5.38-2.409-5.38-5.38c0-2.971,2.409-5.38,5.38-5.38H259.63
				c7.65,0,14.112-6.016,14.112-13.135v-3.005H26.257v3.005c0,7.243,6.145,13.135,13.697,13.135h18.583
				c2.971,0,5.38,2.409,5.38,5.38c0,2.971-2.409,5.38-5.38,5.38H39.955c-13.487,0-24.457-10.718-24.457-23.895v-8.385
				c0-2.971,2.409-5.38,5.38-5.38h258.245c2.971,0,5.38,2.409,5.38,5.38v8.385C284.503,235.329,273.112,246.27,259.63,246.27z"/>
		</g>
		<g>
			<path fill="#161616" d="M279.123,219.37H20.877c-2.971,0-5.38-2.409-5.38-5.38V93.032c0-13.174,11.199-24.305,24.457-24.305
				H259.63c13.482,0,24.872,11.131,24.872,24.305v13.356c0,2.971-2.409,5.38-5.38,5.38c-2.971,0-5.38-2.409-5.38-5.38V93.032
				c0-7.216-6.594-13.545-14.112-13.545H39.955c-7.424,0-13.697,6.202-13.697,13.545V208.61h247.485v-80.702
				c0-2.971,2.409-5.38,5.38-5.38c2.971,0,5.38,2.409,5.38,5.38v86.082C284.503,216.961,282.094,219.37,279.123,219.37z"/>
		</g>
		<g>
			<path fill="#161616" d="M166.135,63.347c-1.129,0-2.267-0.355-3.239-1.087c-10.329-7.805-19.227-0.97-20.204-0.166
				c-2.288,1.875-5.669,1.579-7.563-0.694c-1.894-2.264-1.623-5.622,0.628-7.534c5.514-4.689,19.64-10.766,33.628-0.192
				c2.37,1.792,2.84,5.168,1.049,7.537C169.374,62.611,167.764,63.347,166.135,63.347z"/>
		</g>
		<g>
			<path fill="#161616" d="M182.275,52.586c-1.024,0-2.062-0.292-2.979-0.904c-28.681-19.117-52.598-0.465-52.837-0.275
				c-2.314,1.857-5.706,1.482-7.561-0.841c-1.857-2.319-1.482-5.706,0.841-7.561c0.3-0.242,30.381-23.703,65.525-0.275
				c2.472,1.647,3.139,4.988,1.492,7.461C185.72,51.746,184.015,52.586,182.275,52.586z"/>
		</g>
		<g>
			<path fill="#161616" d="M193.038,36.449c-0.73,0-1.471-0.15-2.183-0.467c-44.899-19.95-74.321-1.237-75.55-0.426
				c-2.478,1.621-5.816,0.943-7.445-1.529c-1.634-2.472-0.972-5.793,1.495-7.437c1.424-0.946,35.328-22.905,85.872-0.439
				c2.713,1.206,3.938,4.385,2.729,7.101C197.065,35.256,195.098,36.446,193.038,36.449z"/>
		</g>
	</g>
</g>
</svg>
